# Blender 5.0.1
# www.blender.org
mtllib SM_Platform.mtl
o Platform_H
v 28.647343 -0.861231 -0.000796
v 28.293701 -0.861232 -1.845528
v 27.388510 -0.861232 -3.498254
v 26.155636 -0.861232 -4.926356
v 24.733183 -0.861232 -6.168348
v 23.193617 -0.861232 -7.261660
v 21.569498 -0.861232 -8.226720
v 19.878981 -0.861232 -9.068455
v 18.132330 -0.861232 -9.786340
v 16.341030 -0.861232 -10.386875
v 14.519358 -0.861232 -10.883818
v 12.675489 -0.861232 -11.295371
v 10.817483 -0.861232 -11.634995
v 8.949259 -0.861232 -11.911132
v 7.072293 -0.861232 -12.129316
v 5.190476 -0.861232 -12.292669
v 3.304383 -0.861232 -12.403454
v 1.416250 -0.861232 -12.464051
v -0.472956 -0.861232 -12.476083
v -2.361905 -0.861232 -12.439848
v -4.248801 -0.861232 -12.354429
v -6.133508 -0.861232 -12.217553
v -8.012594 -0.861232 -12.027125
v -9.885765 -0.861232 -11.780411
v -11.750180 -0.861232 -11.473154
v -13.601798 -0.861232 -11.098768
v -15.435571 -0.861232 -10.646572
v -17.243172 -0.861232 -10.099952
v -19.012905 -0.861232 -9.442332
v -20.732990 -0.861232 -8.662519
v -22.391769 -0.861232 -7.759019
v -23.976673 -0.861232 -6.731012
v -25.463028 -0.861232 -5.567011
v -26.803186 -0.861232 -4.237323
v -27.894855 -0.861232 -2.698790
v -28.555092 -0.861231 -0.937446
v -28.555073 -0.861231 0.939054
v -27.894583 -0.861231 2.700294
v -26.802544 -0.861231 4.238551
v -25.462122 -0.861231 5.567978
v -23.975616 -0.861231 6.731808
v -22.390638 -0.861231 7.759694
v -20.731815 -0.861231 8.663107
v -19.011703 -0.861231 9.442826
v -17.241917 -0.861231 10.100372
v -15.434293 -0.861231 10.646918
v -13.600514 -0.861231 11.099054
v -11.748873 -0.861230 11.473394
v -9.884448 -0.861230 11.780605
v -8.011274 -0.861230 12.027276
v -6.132194 -0.861230 12.217668
v -4.247488 -0.861230 12.354506
v -2.360572 -0.861230 12.439890
v -0.471644 -0.861230 12.476089
v 1.417562 -0.861230 12.464025
v 3.305703 -0.861230 12.403394
v 5.191787 -0.861230 12.292574
v 7.073589 -0.861230 12.129185
v 8.950573 -0.861230 11.910959
v 10.818787 -0.861230 11.634779
v 12.676773 -0.861231 11.295112
v 14.520624 -0.861231 10.883507
v 16.342274 -0.861231 10.386499
v 18.133566 -0.861231 9.785881
v 19.880178 -0.861231 9.067914
v 21.570633 -0.861231 8.226097
v 23.194698 -0.861231 7.260943
v 24.734171 -0.861231 6.167482
v 26.156427 -0.861231 4.925272
v 27.388975 -0.861231 3.496875
v 28.293812 -0.861231 1.843946
v 28.647343 -0.000000 -0.000797
v 28.293812 0.000000 1.843946
v 27.388975 0.000000 3.496875
v 26.156427 0.000000 4.925272
v 24.734171 0.000000 6.167482
v 23.194698 0.000001 7.260943
v 21.570633 0.000001 8.226097
v 19.880178 0.000001 9.067914
v 18.133566 0.000001 9.785881
v 16.342274 0.000001 10.386499
v 14.520624 0.000001 10.883507
v 12.676773 0.000001 11.295112
v 10.818787 0.000001 11.634779
v 8.950573 0.000001 11.910959
v 7.073589 0.000001 12.129185
v 5.191787 0.000001 12.292574
v 3.305703 0.000001 12.403394
v 1.417562 0.000001 12.464025
v -0.471644 0.000001 12.476089
v -2.360572 0.000001 12.439890
v -4.247488 0.000001 12.354506
v -6.132194 0.000001 12.217668
v -8.011274 0.000001 12.027276
v -9.884448 0.000001 11.780605
v -11.748873 0.000001 11.473394
v -13.600514 0.000001 11.099054
v -15.434293 0.000001 10.646918
v -17.241917 0.000001 10.100372
v -19.011703 0.000001 9.442826
v -20.731815 0.000001 8.663107
v -22.390638 0.000001 7.759694
v -23.975616 0.000001 6.731808
v -25.462122 0.000000 5.567978
v -26.802544 0.000000 4.238551
v -27.894583 0.000000 2.700294
v -28.555073 0.000000 0.939054
v -28.555092 -0.000000 -0.937446
v -27.894855 -0.000000 -2.698790
v -26.803186 -0.000000 -4.237323
v -25.463028 -0.000000 -5.567011
v -23.976673 -0.000001 -6.731012
v -22.391769 -0.000001 -7.759019
v -20.732990 -0.000001 -8.662519
v -19.012905 -0.000001 -9.442332
v -17.243172 -0.000001 -10.099952
v -15.435571 -0.000001 -10.646572
v -13.601798 -0.000001 -11.098768
v -11.750180 -0.000001 -11.473154
v -9.885765 -0.000001 -11.780411
v -8.012594 -0.000001 -12.027125
v -6.133508 -0.000001 -12.217553
v -4.248801 -0.000001 -12.354429
v -2.361905 -0.000001 -12.439848
v -0.472956 -0.000001 -12.476083
v 1.416250 -0.000001 -12.464051
v 3.304383 -0.000001 -12.403454
v 5.190476 -0.000001 -12.292669
v 7.072293 -0.000001 -12.129316
v 8.949259 -0.000001 -11.911132
v 10.817483 -0.000001 -11.634995
v 12.675489 -0.000001 -11.295371
v 14.519358 -0.000001 -10.883818
v 16.341030 -0.000001 -10.386875
v 18.132330 -0.000001 -9.786340
v 19.878981 -0.000001 -9.068455
v 21.569498 -0.000001 -8.226720
v 23.193617 -0.000001 -7.261660
v 24.733183 -0.000000 -6.168348
v 26.155636 -0.000000 -4.926356
v 27.388510 -0.000000 -3.498254
v 28.293701 -0.000000 -1.845528
vn -0.0000 1.0000 -0.0000
vn 0.9821 -0.0000 0.1882
vn 0.8772 -0.0000 0.4802
vn 0.7571 -0.0000 0.6533
vn 0.6578 -0.0000 0.7532
vn 0.5791 -0.0000 0.8153
vn 0.5109 -0.0000 0.8597
vn 0.4458 -0.0000 0.8951
vn 0.3802 -0.0000 0.9249
vn 0.3179 -0.0000 0.9481
vn 0.2632 -0.0000 0.9647
vn 0.2179 -0.0000 0.9760
vn 0.1798 -0.0000 0.9837
vn 0.1462 -0.0000 0.9892
vn 0.1155 -0.0000 0.9933
vn 0.0865 -0.0000 0.9963
vn 0.0587 -0.0000 0.9983
vn 0.0321 -0.0000 0.9995
vn 0.0064 -0.0000 1.0000
vn -0.0192 -0.0000 0.9998
vn -0.0452 -0.0000 0.9990
vn -0.0724 -0.0000 0.9974
vn -0.1008 -0.0000 0.9949
vn -0.1306 -0.0000 0.9914
vn -0.1626 -0.0000 0.9867
vn -0.1982 -0.0000 0.9802
vn -0.2394 -0.0000 0.9709
vn -0.2894 -0.0000 0.9572
vn -0.3483 -0.0000 0.9374
vn -0.4129 -0.0000 0.9108
vn -0.4783 -0.0000 0.8782
vn -0.5441 -0.0000 0.8390
vn -0.6165 -0.0000 0.7874
vn -0.7042 -0.0000 0.7100
vn -0.8154 -0.0000 0.5789
vn -0.9363 -0.0000 0.3511
vn -1.0000 -0.0000 -0.0000
vn -0.9364 -0.0000 -0.3510
vn -0.8156 -0.0000 -0.5787
vn -0.7043 -0.0000 -0.7099
vn -0.6166 -0.0000 -0.7873
vn -0.5442 -0.0000 -0.8390
vn -0.4783 -0.0000 -0.8782
vn -0.4129 -0.0000 -0.9108
vn -0.3483 -0.0000 -0.9374
vn -0.2895 -0.0000 -0.9572
vn -0.2394 -0.0000 -0.9709
vn -0.1982 -0.0000 -0.9802
vn -0.1626 -0.0000 -0.9867
vn -0.1306 -0.0000 -0.9914
vn -0.1008 -0.0000 -0.9949
vn -0.0724 -0.0000 -0.9974
vn -0.0452 -0.0000 -0.9990
vn -0.0192 -0.0000 -0.9998
vn 0.0064 -0.0000 -1.0000
vn 0.0321 -0.0000 -0.9995
vn 0.0586 -0.0000 -0.9983
vn 0.0865 -0.0000 -0.9963
vn 0.1155 -0.0000 -0.9933
vn 0.1462 -0.0000 -0.9893
vn 0.1798 -0.0000 -0.9837
vn 0.2178 -0.0000 -0.9760
vn 0.2632 -0.0000 -0.9647
vn 0.3179 -0.0000 -0.9481
vn 0.3801 -0.0000 -0.9249
vn 0.4457 -0.0000 -0.8952
vn 0.5108 -0.0000 -0.8597
vn 0.5790 -0.0000 -0.8153
vn 0.6577 -0.0000 -0.7533
vn 0.7570 -0.0000 -0.6535
vn 0.8771 -0.0000 -0.4804
vn 0.9821 -0.0000 -0.1883
vn 0.3802 -0.0000 -0.9249
vt 0.000000 0.537634
vt 0.011542 0.391841
vt 0.000000 0.462430
vt 0.000000 -1.073834
vt 0.020224 -1.029725
vt 0.000000 -1.029725
vt 0.020224 -0.985474
vt 0.000000 -0.985474
vt 0.020224 -0.941170
vt 0.000000 -0.941170
vt 0.020224 -0.896825
vt 0.000000 -0.896825
vt 0.020224 -0.852483
vt 0.000000 -0.852483
vt 0.020224 -0.808118
vt 0.000000 -0.808118
vt 0.020224 -0.763772
vt 0.000000 -0.763772
vt 0.020224 -0.719426
vt 0.000000 -0.719426
vt 0.020224 -0.675059
vt 0.000000 -0.675059
vt 0.020224 -0.630718
vt 0.000000 -0.630718
vt 0.020224 -0.586353
vt 0.000000 -0.586353
vt 0.020224 -0.541999
vt 0.000000 -0.541999
vt 0.020224 -0.497651
vt 0.000000 -0.497651
vt 0.020224 -0.453277
vt 0.000000 -0.453277
vt 0.020224 -0.408920
vt 0.000000 -0.408920
vt 0.020224 -0.364553
vt 0.000000 -0.364553
vt 0.020224 -0.320191
vt 0.000000 -0.320191
vt 0.020224 -0.275825
vt 0.000000 -0.275825
vt 0.020224 -0.231460
vt 0.000000 -0.231460
vt 0.020224 -0.187104
vt 0.000000 -0.187104
vt 0.020224 -0.142729
vt 0.000000 -0.142729
vt 0.020224 -0.098376
vt 0.000000 -0.098376
vt 0.020224 -0.054009
vt 0.000000 -0.054009
vt 0.020224 -0.009636
vt 0.000000 -0.009636
vt 0.020224 0.034726
vt 0.000000 0.034726
vt 0.020224 0.079078
vt 0.000000 0.079078
vt 0.020224 0.123424
vt 0.000000 0.123424
vt 0.020224 0.167760
vt 0.000000 0.167760
vt 0.020224 0.212110
vt 0.000000 0.212110
vt 0.020224 0.256466
vt 0.000000 0.256466
vt 0.020224 0.300828
vt 0.000000 0.300828
vt 0.020224 0.345162
vt 0.000000 0.345162
vt 0.020224 0.389495
vt 0.000000 0.389495
vt 0.020224 0.433795
vt 0.000000 0.433795
vt 0.020224 0.477967
vt 0.000000 0.477967
vt 0.020224 0.522033
vt 0.000000 0.522033
vt 0.020224 0.566205
vt 0.000000 0.566205
vt 0.020224 0.610505
vt 0.000000 0.610505
vt 0.020224 0.654838
vt 0.000000 0.654838
vt 0.020224 0.699172
vt 0.000000 0.699172
vt 0.020224 0.743534
vt 0.000000 0.743534
vt 0.020224 0.787890
vt 0.000000 0.787890
vt 0.020224 0.832240
vt 0.000000 0.832240
vt 0.020224 0.876575
vt 0.000000 0.876575
vt 0.020224 0.920922
vt 0.000000 0.920922
vt 0.020224 0.965274
vt 0.000000 0.965274
vt 0.020224 1.009636
vt 0.000000 1.009636
vt 0.020224 1.054008
vt 0.000000 1.054008
vt 0.020224 1.098376
vt 0.000000 1.098376
vt 0.020224 1.142728
vt 0.000000 1.142728
vt 0.020224 1.187104
vt 0.000000 1.187104
vt 0.020224 1.231459
vt 0.000000 1.231459
vt 0.020224 1.275825
vt 0.000000 1.275825
vt 0.020224 1.320190
vt 0.000000 1.320190
vt 0.020224 1.364552
vt 0.000000 1.364552
vt 0.020224 1.408920
vt 0.000000 1.408920
vt 0.020224 1.453277
vt 0.000000 1.453277
vt 0.020224 1.497650
vt 0.000000 1.497650
vt 0.020224 1.541999
vt 0.000000 1.541999
vt 0.020224 1.586353
vt 0.000000 1.586353
vt 0.020224 1.630718
vt 0.000000 1.630718
vt 0.020224 1.675060
vt 0.000000 1.675060
vt 0.020224 1.719426
vt 0.000000 1.719426
vt 0.020224 1.763772
vt 0.000000 1.763772
vt 0.020224 1.808119
vt 0.000000 1.808119
vt 0.020224 1.852483
vt 0.000000 1.852483
vt 0.020224 1.896826
vt 0.000000 1.896826
vt 0.020224 1.941170
vt 0.000000 1.941170
vt 0.020224 1.985474
vt 0.000000 1.985474
vt 0.020224 2.029725
vt 0.000000 2.029725
vt 0.020224 2.073834
vt 0.000000 2.073834
vt 0.020224 -1.073834
vt 1.000000 0.499968
vt 0.993818 0.426037
vt 0.993820 0.573899
vt 0.978002 0.640143
vt 0.977993 0.359802
vt 0.956454 0.697388
vt 0.956441 0.302568
vt 0.931591 0.747172
vt 0.931574 0.252793
vt 0.904678 0.790994
vt 0.904659 0.208977
vt 0.876287 0.829674
vt 0.876267 0.170300
vt 0.846735 0.863412
vt 0.846713 0.136566
vt 0.816201 0.892185
vt 0.816179 0.107796
vt 0.784886 0.916256
vt 0.784864 0.083728
vt 0.753040 0.936175
vt 0.753018 0.063813
vt 0.720806 0.952670
vt 0.720784 0.047319
vt 0.688325 0.966283
vt 0.688302 0.033708
vt 0.655666 0.977351
vt 0.655643 0.022641
vt 0.622853 0.986097
vt 0.622830 0.013897
vt 0.589955 0.992645
vt 0.589932 0.007351
vt 0.556983 0.997087
vt 0.556960 0.002911
vt 0.523975 0.999517
vt 0.523952 0.000482
vt 0.490948 1.000000
vt 0.490926 0.000000
vt 0.457927 0.998549
vt 0.457903 0.001452
vt 0.424940 0.995127
vt 0.424917 0.004875
vt 0.391992 0.989643
vt 0.391969 0.010361
vt 0.359142 0.982013
vt 0.359119 0.017993
vt 0.326396 0.972127
vt 0.326373 0.027880
vt 0.293803 0.959815
vt 0.293780 0.040194
vt 0.261433 0.944813
vt 0.261410 0.055198
vt 0.229375 0.926693
vt 0.229353 0.073321
vt 0.197774 0.904789
vt 0.197752 0.095227
vt 0.166835 0.878437
vt 0.166814 0.121583
vt 0.136765 0.847188
vt 0.136744 0.152835
vt 0.107766 0.810983
vt 0.107746 0.189044
vt 0.080057 0.769788
vt 0.080039 0.230243
vt 0.054071 0.723146
vt 0.054055 0.276893
vt 0.030638 0.669867
vt 0.030626 0.330182
vt 0.011547 0.608219
s 0
f 107/1/1 109/2/1 108/3/1
f 1/4/2 73/5/2 71/6/2
f 71/6/3 74/7/3 70/8/3
f 70/8/4 75/9/4 69/10/4
f 69/10/5 76/11/5 68/12/5
f 68/12/6 77/13/6 67/14/6
f 67/14/7 78/15/7 66/16/7
f 66/16/8 79/17/8 65/18/8
f 65/18/9 80/19/9 64/20/9
f 64/20/10 81/21/10 63/22/10
f 63/22/11 82/23/11 62/24/11
f 62/24/12 83/25/12 61/26/12
f 61/26/13 84/27/13 60/28/13
f 60/28/14 85/29/14 59/30/14
f 59/30/15 86/31/15 58/32/15
f 58/32/16 87/33/16 57/34/16
f 57/34/17 88/35/17 56/36/17
f 56/36/18 89/37/18 55/38/18
f 55/38/19 90/39/19 54/40/19
f 54/40/20 91/41/20 53/42/20
f 53/42/21 92/43/21 52/44/21
f 52/44/22 93/45/22 51/46/22
f 51/46/23 94/47/23 50/48/23
f 50/48/24 95/49/24 49/50/24
f 49/50/25 96/51/25 48/52/25
f 48/52/26 97/53/26 47/54/26
f 47/54/27 98/55/27 46/56/27
f 46/56/28 99/57/28 45/58/28
f 45/58/29 100/59/29 44/60/29
f 44/60/30 101/61/30 43/62/30
f 43/62/31 102/63/31 42/64/31
f 42/64/32 103/65/32 41/66/32
f 41/66/33 104/67/33 40/68/33
f 40/68/34 105/69/34 39/70/34
f 39/70/35 106/71/35 38/72/35
f 38/72/36 107/73/36 37/74/36
f 37/74/37 108/75/37 36/76/37
f 36/76/38 109/77/38 35/78/38
f 35/78/39 110/79/39 34/80/39
f 34/80/40 111/81/40 33/82/40
f 33/82/41 112/83/41 32/84/41
f 32/84/42 113/85/42 31/86/42
f 31/86/43 114/87/43 30/88/43
f 30/88/44 115/89/44 29/90/44
f 29/90/45 116/91/45 28/92/45
f 28/92/46 117/93/46 27/94/46
f 27/94/47 118/95/47 26/96/47
f 26/96/48 119/97/48 25/98/48
f 25/98/49 120/99/49 24/100/49
f 24/100/50 121/101/50 23/102/50
f 23/102/51 122/103/51 22/104/51
f 22/104/52 123/105/52 21/106/52
f 21/106/53 124/107/53 20/108/53
f 20/108/54 125/109/54 19/110/54
f 19/110/55 126/111/55 18/112/55
f 18/112/56 127/113/56 17/114/56
f 17/114/57 128/115/57 16/116/57
f 16/116/58 129/117/58 15/118/58
f 15/118/59 130/119/59 14/120/59
f 14/120/60 131/121/60 13/122/60
f 13/122/61 132/123/61 12/124/61
f 12/124/62 133/125/62 11/126/62
f 11/126/63 134/127/63 10/128/63
f 10/128/64 135/129/64 9/130/64
f 9/130/65 136/131/65 8/132/65
f 8/132/66 137/133/66 7/134/66
f 7/134/67 138/135/67 6/136/67
f 6/136/68 139/137/68 5/138/68
f 5/138/69 140/139/69 4/140/69
f 4/140/70 141/141/70 3/142/70
f 3/142/71 142/143/71 2/144/71
f 2/144/72 72/145/72 1/146/72
f 72/145/72 2/144/72 142/143/72
f 142/143/71 3/142/71 141/141/71
f 141/141/70 4/140/70 140/139/70
f 140/139/69 5/138/69 139/137/69
f 139/137/68 6/136/68 138/135/68
f 138/135/67 7/134/67 137/133/67
f 137/133/66 8/132/66 136/131/66
f 136/131/73 9/130/73 135/129/73
f 135/129/64 10/128/64 134/127/64
f 134/127/63 11/126/63 133/125/63
f 133/125/62 12/124/62 132/123/62
f 132/123/61 13/122/61 131/121/61
f 131/121/60 14/120/60 130/119/60
f 130/119/59 15/118/59 129/117/59
f 129/117/58 16/116/58 128/115/58
f 128/115/57 17/114/57 127/113/57
f 127/113/56 18/112/56 126/111/56
f 126/111/55 19/110/55 125/109/55
f 125/109/54 20/108/54 124/107/54
f 124/107/53 21/106/53 123/105/53
f 123/105/52 22/104/52 122/103/52
f 122/103/51 23/102/51 121/101/51
f 121/101/50 24/100/50 120/99/50
f 120/99/49 25/98/49 119/97/49
f 119/97/48 26/96/48 118/95/48
f 118/95/47 27/94/47 117/93/47
f 117/93/46 28/92/46 116/91/46
f 116/91/45 29/90/45 115/89/45
f 115/89/44 30/88/44 114/87/44
f 114/87/43 31/86/43 113/85/43
f 113/85/42 32/84/42 112/83/42
f 112/83/41 33/82/41 111/81/41
f 111/81/40 34/80/40 110/79/40
f 110/79/39 35/78/39 109/77/39
f 109/77/38 36/76/38 108/75/38
f 108/75/37 37/74/37 107/73/37
f 107/73/36 38/72/36 106/71/36
f 106/71/35 39/70/35 105/69/35
f 105/69/34 40/68/34 104/67/34
f 104/67/33 41/66/33 103/65/33
f 103/65/32 42/64/32 102/63/32
f 102/63/31 43/62/31 101/61/31
f 101/61/30 44/60/30 100/59/30
f 100/59/29 45/58/29 99/57/29
f 99/57/28 46/56/28 98/55/28
f 98/55/27 47/54/27 97/53/27
f 97/53/26 48/52/26 96/51/26
f 96/51/25 49/50/25 95/49/25
f 95/49/24 50/48/24 94/47/24
f 94/47/23 51/46/23 93/45/23
f 93/45/22 52/44/22 92/43/22
f 92/43/21 53/42/21 91/41/21
f 91/41/20 54/40/20 90/39/20
f 90/39/19 55/38/19 89/37/19
f 89/37/18 56/36/18 88/35/18
f 88/35/17 57/34/17 87/33/17
f 87/33/16 58/32/16 86/31/16
f 86/31/15 59/30/15 85/29/15
f 85/29/14 60/28/14 84/27/14
f 84/27/13 61/26/13 83/25/13
f 83/25/12 62/24/12 82/23/12
f 82/23/11 63/22/11 81/21/11
f 81/21/10 64/20/10 80/19/10
f 80/19/9 65/18/9 79/17/9
f 79/17/8 66/16/8 78/15/8
f 78/15/7 67/14/7 77/13/7
f 77/13/6 68/12/6 76/11/6
f 76/11/5 69/10/5 75/9/5
f 75/9/4 70/8/4 74/7/4
f 74/7/3 71/6/3 73/5/3
f 73/5/2 1/4/2 72/147/2
f 72/148/1 142/149/1 73/150/1
f 73/150/1 142/149/1 74/151/1
f 74/151/1 142/149/1 141/152/1
f 74/151/1 141/152/1 75/153/1
f 75/153/1 141/152/1 140/154/1
f 75/153/1 140/154/1 76/155/1
f 76/155/1 140/154/1 139/156/1
f 76/155/1 139/156/1 77/157/1
f 77/157/1 139/156/1 138/158/1
f 77/157/1 138/158/1 78/159/1
f 78/159/1 138/158/1 137/160/1
f 78/159/1 137/160/1 79/161/1
f 79/161/1 137/160/1 136/162/1
f 79/161/1 136/162/1 80/163/1
f 80/163/1 136/162/1 135/164/1
f 80/163/1 135/164/1 81/165/1
f 81/165/1 135/164/1 134/166/1
f 81/165/1 134/166/1 82/167/1
f 82/167/1 134/166/1 133/168/1
f 82/167/1 133/168/1 83/169/1
f 83/169/1 133/168/1 132/170/1
f 83/169/1 132/170/1 84/171/1
f 84/171/1 132/170/1 131/172/1
f 84/171/1 131/172/1 85/173/1
f 85/173/1 131/172/1 130/174/1
f 85/173/1 130/174/1 86/175/1
f 86/175/1 130/174/1 129/176/1
f 86/175/1 129/176/1 87/177/1
f 87/177/1 129/176/1 128/178/1
f 87/177/1 128/178/1 88/179/1
f 88/179/1 128/178/1 127/180/1
f 88/179/1 127/180/1 89/181/1
f 89/181/1 127/180/1 126/182/1
f 89/181/1 126/182/1 90/183/1
f 90/183/1 126/182/1 125/184/1
f 90/183/1 125/184/1 91/185/1
f 91/185/1 125/184/1 124/186/1
f 91/185/1 124/186/1 92/187/1
f 92/187/1 124/186/1 123/188/1
f 92/187/1 123/188/1 93/189/1
f 93/189/1 123/188/1 122/190/1
f 93/189/1 122/190/1 94/191/1
f 94/191/1 122/190/1 121/192/1
f 94/191/1 121/192/1 95/193/1
f 95/193/1 121/192/1 120/194/1
f 95/193/1 120/194/1 96/195/1
f 96/195/1 120/194/1 119/196/1
f 96/195/1 119/196/1 97/197/1
f 97/197/1 119/196/1 118/198/1
f 97/197/1 118/198/1 98/199/1
f 98/199/1 118/198/1 117/200/1
f 98/199/1 117/200/1 99/201/1
f 99/201/1 117/200/1 116/202/1
f 99/201/1 116/202/1 100/203/1
f 100/203/1 116/202/1 115/204/1
f 100/203/1 115/204/1 101/205/1
f 101/205/1 115/204/1 114/206/1
f 101/205/1 114/206/1 102/207/1
f 102/207/1 114/206/1 113/208/1
f 102/207/1 113/208/1 103/209/1
f 103/209/1 113/208/1 112/210/1
f 103/209/1 112/210/1 104/211/1
f 104/211/1 112/210/1 111/212/1
f 104/211/1 111/212/1 105/213/1
f 105/213/1 111/212/1 110/214/1
f 105/213/1 110/214/1 106/215/1
f 106/215/1 110/214/1 109/2/1
f 106/215/1 109/2/1 107/1/1
